<svg width="63" height="63" viewBox="0 0 63 63" fill="none" xmlns="http://www.w3.org/2000/svg">
<rect x="13.125" y="5.25" width="39.375" height="31.5" rx="2" fill="#405DB5"/>
<path d="M5.25 13.7C5.25 12.5799 5.25 12.0198 5.46799 11.592C5.65973 11.2157 5.96569 10.9097 6.34202 10.718C6.76984 10.5 7.3299 10.5 8.45 10.5H24.5374C25.1636 10.5 25.4766 10.5 25.7608 10.5863C26.0124 10.6627 26.2464 10.788 26.4496 10.9549C26.679 11.1435 26.8527 11.404 27.2 11.925L30.55 16.95C30.8974 17.471 31.071 17.7315 31.3005 17.9201C31.5036 18.087 31.7376 18.2123 31.9892 18.2887C32.2734 18.375 32.5865 18.375 33.2126 18.375H54.55C55.6701 18.375 56.2302 18.375 56.658 18.593C57.0343 18.7847 57.3403 19.0907 57.532 19.467C57.75 19.8948 57.75 20.4549 57.75 21.575V49.3C57.75 50.4201 57.75 50.9801 57.532 51.408C57.3403 51.7843 57.0343 52.0903 56.658 52.282C56.2302 52.5 55.6701 52.5 54.55 52.5H8.45C7.3299 52.5 6.76984 52.5 6.34202 52.282C5.96569 52.0903 5.65973 51.7843 5.46799 51.408C5.25 50.9801 5.25 50.4201 5.25 49.3V13.7Z" fill="#4378DB"/>
</svg>
