<svg width="21" height="17" viewBox="0 0 21 17" fill="none" xmlns="http://www.w3.org/2000/svg">
<path d="M1 3.11111V13.6667C1 14.2266 1.22242 14.7635 1.61833 15.1594C2.01424 15.5554 2.55121 15.7778 3.11111 15.7778H17.8889C18.4488 15.7778 18.9858 15.5554 19.3817 15.1594C19.7776 14.7635 20 14.2266 20 13.6667V5.22222C20 4.66232 19.7776 4.12535 19.3817 3.72944C18.9858 3.33353 18.4488 3.11111 17.8889 3.11111H11.5556L9.44444 1H3.11111C2.55121 1 2.01424 1.22242 1.61833 1.61833C1.22242 2.01424 1 2.55121 1 3.11111V3.11111Z" stroke="#6350FF" stroke-width="2" stroke-linecap="round" stroke-linejoin="round"/>
<rect x="6" y="11" width="9" height="2" rx="1" fill="#6350FF"/>
<rect x="16" y="11" width="2" height="2" rx="1" fill="#6350FF"/>
</svg>
