<svg width="20" height="20" viewBox="0 0 20 20" fill="none" xmlns="http://www.w3.org/2000/svg">
<path d="M9.99994 12.4546C11.3556 12.4546 12.4545 11.3556 12.4545 10C12.4545 8.64441 11.3556 7.54547 9.99994 7.54547C8.64433 7.54547 7.54538 8.64441 7.54538 10C7.54538 11.3556 8.64433 12.4546 9.99994 12.4546Z" stroke="#6350FF" stroke-width="2" stroke-linecap="round" stroke-linejoin="round"/>
<path d="M16.0546 12.4546C15.9457 12.7014 15.9132 12.9751 15.9613 13.2405C16.0095 13.506 16.136 13.7509 16.3246 13.9437L16.3737 13.9928C16.5259 14.1448 16.6465 14.3252 16.7289 14.5239C16.8112 14.7225 16.8536 14.9355 16.8536 15.1505C16.8536 15.3656 16.8112 15.5785 16.7289 15.7772C16.6465 15.9758 16.5259 16.1563 16.3737 16.3083C16.2217 16.4604 16.0413 16.5811 15.8426 16.6634C15.644 16.7458 15.431 16.7882 15.216 16.7882C15.0009 16.7882 14.788 16.7458 14.5893 16.6634C14.3907 16.5811 14.2102 16.4604 14.0582 16.3083L14.0092 16.2592C13.8163 16.0705 13.5714 15.944 13.306 15.8959C13.0406 15.8478 12.7668 15.8802 12.5201 15.9892C12.2781 16.0929 12.0717 16.2651 11.9263 16.4846C11.7809 16.7041 11.7029 16.9613 11.7019 17.2246V17.3637C11.7019 17.7977 11.5295 18.2139 11.2226 18.5208C10.9157 18.8277 10.4995 19.0001 10.0655 19.0001C9.6315 19.0001 9.21529 18.8277 8.90841 18.5208C8.60153 18.2139 8.42912 17.7977 8.42912 17.3637V17.2901C8.42279 17.0193 8.33513 16.7566 8.17754 16.5363C8.01995 16.3159 7.79972 16.1481 7.54548 16.0546C7.29871 15.9457 7.02496 15.9132 6.75954 15.9613C6.49413 16.0095 6.24922 16.136 6.05639 16.3246L6.0073 16.3737C5.85532 16.5259 5.67485 16.6465 5.4762 16.7289C5.27754 16.8112 5.06461 16.8536 4.84956 16.8536C4.63452 16.8536 4.42158 16.8112 4.22293 16.7289C4.02428 16.6465 3.84381 16.5259 3.69183 16.3737C3.53969 16.2217 3.41899 16.0413 3.33664 15.8426C3.25429 15.644 3.2119 15.431 3.2119 15.216C3.2119 15.0009 3.25429 14.788 3.33664 14.5893C3.41899 14.3907 3.53969 14.2102 3.69183 14.0582L3.74092 14.0092C3.92954 13.8163 4.05607 13.5714 4.1042 13.306C4.15232 13.0406 4.11984 12.7668 4.01092 12.5201C3.90721 12.2781 3.73499 12.0717 3.51548 11.9263C3.29597 11.7809 3.03874 11.7029 2.77546 11.7019H2.63637C2.20238 11.7019 1.78616 11.5295 1.47928 11.2226C1.1724 10.9157 1 10.4995 1 10.0655C1 9.6315 1.1724 9.21529 1.47928 8.90841C1.78616 8.60153 2.20238 8.42912 2.63637 8.42912H2.71001C2.98082 8.42279 3.24347 8.33513 3.4638 8.17754C3.68413 8.01995 3.85196 7.79972 3.94547 7.54548C4.05438 7.29871 4.08687 7.02496 4.03874 6.75954C3.99062 6.49413 3.86409 6.24922 3.67547 6.05639L3.62638 6.0073C3.47423 5.85532 3.35353 5.67485 3.27119 5.4762C3.18884 5.27754 3.14645 5.06461 3.14645 4.84956C3.14645 4.63452 3.18884 4.42158 3.27119 4.22293C3.35353 4.02428 3.47423 3.84381 3.62638 3.69183C3.77835 3.53969 3.95882 3.41899 4.15748 3.33664C4.35613 3.25429 4.56906 3.2119 4.78411 3.2119C4.99915 3.2119 5.21209 3.25429 5.41074 3.33664C5.60939 3.41899 5.78987 3.53969 5.94184 3.69183L5.99093 3.74092C6.18376 3.92954 6.42867 4.05607 6.69409 4.1042C6.95951 4.15232 7.23325 4.11984 7.48003 4.01092H7.54548C7.78748 3.90721 7.99386 3.73499 8.13924 3.51548C8.28461 3.29597 8.36262 3.03874 8.36367 2.77546V2.63637C8.36367 2.20238 8.53607 1.78616 8.84295 1.47928C9.14983 1.1724 9.56605 1 10 1C10.434 1 10.8503 1.1724 11.1571 1.47928C11.464 1.78616 11.6364 2.20238 11.6364 2.63637V2.71001C11.6375 2.97329 11.7155 3.23052 11.8608 3.45003C12.0062 3.66954 12.2126 3.84175 12.4546 3.94547C12.7014 4.05438 12.9751 4.08687 13.2405 4.03874C13.506 3.99062 13.7509 3.86409 13.9437 3.67547L13.9928 3.62638C14.1448 3.47423 14.3252 3.35353 14.5239 3.27119C14.7225 3.18884 14.9355 3.14645 15.1505 3.14645C15.3656 3.14645 15.5785 3.18884 15.7772 3.27119C15.9758 3.35353 16.1563 3.47423 16.3083 3.62638C16.4604 3.77835 16.5811 3.95882 16.6634 4.15748C16.7458 4.35613 16.7882 4.56906 16.7882 4.78411C16.7882 4.99915 16.7458 5.21209 16.6634 5.41074C16.5811 5.60939 16.4604 5.78987 16.3083 5.94184L16.2592 5.99093C16.0705 6.18376 15.944 6.42867 15.8959 6.69409C15.8478 6.95951 15.8802 7.23325 15.9892 7.48003V7.54548C16.0929 7.78748 16.2651 7.99386 16.4846 8.13924C16.7041 8.28461 16.9613 8.36262 17.2246 8.36367H17.3637C17.7977 8.36367 18.2139 8.53607 18.5208 8.84295C18.8277 9.14983 19.0001 9.56605 19.0001 10C19.0001 10.434 18.8277 10.8503 18.5208 11.1571C18.2139 11.464 17.7977 11.6364 17.3637 11.6364H17.2901C17.0268 11.6375 16.7696 11.7155 16.5501 11.8608C16.3305 12.0062 16.1583 12.2126 16.0546 12.4546V12.4546Z" stroke="#6350FF" stroke-width="2" stroke-linecap="round" stroke-linejoin="round"/>
</svg>
